<?xml version="1.0" encoding="UTF-8"?>
<svg width="800pt" height="800pt" version="1.1" viewBox="100 30 500 500" xmlns="http://www.w3.org/2000/svg" xmlns:xlink="http://www.w3.org/1999/xlink">
 <g>
  <path d="m548.33 100.33c0-1.168 0-1.168-1.168-2.332 0-1.168 0-1.168-1.168-2.332 0-1.168-1.168-1.168-1.168-2.332 0-1.168-1.168-1.168-1.168-2.332-1.168-2.332-3.5-4.668-7-7l-1.168-1.168c-1.168 0-1.168-1.168-2.332-1.168-1.168 0-1.168 0-2.332-1.168-1.168 0-1.168 0-2.332-1.168h-4.668-105c-12.832 0-23.332 10.5-23.332 23.332 0 12.832 10.5 23.332 23.332 23.332h49l-77 77c-9.332 9.332-9.332 23.332 0 32.668 5.8398 7.0039 11.672 9.3359 17.504 9.3359s11.668-2.332 16.332-7l77-77 0.003907 49c0 12.832 10.5 23.332 23.332 23.332s23.332-10.5 23.332-23.332v-105-4.668z"/>
  <path d="m275.33 322-77 77v-49c0-12.832-10.5-23.332-23.332-23.332s-23.332 10.5-23.332 23.332v105 4.668c0 1.168 0 1.168 1.168 2.332 0 1.168 0 1.168 1.168 2.332 0 1.168 1.168 1.168 1.168 2.332 0 0 0 1.168 1.168 1.168 1.168 2.332 3.5 4.668 7 7 0 0 1.168 1.168 2.332 1.168 1.168 0 1.168 1.168 2.332 1.168 1.168 0 1.168 0 2.332 1.168 1.168 0 1.168 0 2.332 1.168h4.668 105c12.832 0 23.332-10.5 23.332-23.332s-10.5-23.332-23.332-23.332h-49l77-77c9.332-9.332 9.332-23.332 0-32.668-11.668-10.504-25.668-10.504-35.004-1.1719z"/>
 </g>
</svg>
